<?xml version="1.0" standalone="no"?><!-- Generator: Gravit.io --><svg xmlns="http://www.w3.org/2000/svg" xmlns:xlink="http://www.w3.org/1999/xlink" style="isolation:isolate" viewBox="2 2 28 28" width="28" height="28"><g><g><circle vector-effect="non-scaling-stroke" cx="0" cy="0" r="1" transform="matrix(14,0,0,14,16,16)" fill="rgb(247,160,114)"/><circle vector-effect="non-scaling-stroke" cx="0" cy="0" r="1" transform="matrix(12.25,0,0,12.25,16,16)" fill="rgb(15,163,177)"/></g><path d=" M 14.005 17.82 L 13.27 23.945 L 13.27 23.945 Q 13.2 24.505 12.561 24.505 L 12.561 24.505 L 12.561 24.505 Q 11.923 24.505 11.923 24.068 L 11.923 24.068 L 11.923 24.068 Q 11.923 24.033 13.69 9.683 L 13.69 9.683 L 13.69 9.683 Q 13.743 9.333 14.215 9.263 L 14.215 9.263 L 14.215 9.263 Q 16.578 9 17.523 9 L 17.523 9 L 17.523 9 Q 19.64 9 20.883 9.98 L 20.883 9.98 L 20.883 9.98 Q 22.125 10.96 22.125 12.815 L 22.125 12.815 L 22.125 12.815 Q 22.125 14.127 21.504 15.125 L 21.504 15.125 L 21.504 15.125 Q 20.883 16.123 19.815 16.7 L 19.815 16.7 L 19.815 16.7 Q 17.715 17.838 14.688 17.838 L 14.688 17.838 L 14.688 17.838 Q 14.233 17.838 14.005 17.82 L 14.005 17.82 Z  M 20.708 12.815 L 20.708 12.815 L 20.708 12.815 Q 20.708 11.485 19.859 10.794 L 19.859 10.794 L 19.859 10.794 Q 19.01 10.103 17.645 10.103 L 17.645 10.103 L 17.645 10.103 Q 16.28 10.103 14.95 10.278 L 14.95 10.278 L 14.18 16.613 L 14.18 16.613 Q 20.708 16.613 20.708 12.815 Z " fill-rule="evenodd" fill="rgb(247,160,114)"/></g></svg>